<mxfile host="app.diagrams.net" modified="2022-05-10T10:45:05.058Z" agent="5.0 (Macintosh)" etag="zRGl3S7dcnnJ7oLMXvPO" version="17.5.0" type="github">
  <diagram id="ManZLZeYZ6ZNf_kwOpFl" name="Page-1">
    <mxGraphModel dx="542" dy="797" grid="1" gridSize="10" guides="1" tooltips="1" connect="1" arrows="1" fold="1" page="1" pageScale="1" pageWidth="1169" pageHeight="1654" math="0" shadow="0">
      <root>
        <mxCell id="0" />
        <mxCell id="1" parent="0" />
        <mxCell id="fBMCkiBvSeu0z5cr5rmm-2" value="&lt;div&gt;MySQL 服务器&lt;br&gt;&lt;/div&gt;" style="rounded=0;whiteSpace=wrap;html=1;fillColor=#f5f5f5;align=left;verticalAlign=top;fontColor=#333333;strokeColor=#666666;" vertex="1" parent="1">
          <mxGeometry x="240" y="160" width="480" height="420" as="geometry" />
        </mxCell>
        <mxCell id="fBMCkiBvSeu0z5cr5rmm-11" value="&lt;div style=&quot;font-size: 8px&quot;&gt;客户端通过&lt;/div&gt;&lt;div style=&quot;font-size: 8px&quot;&gt;服务器通讯协议&lt;/div&gt;&lt;div style=&quot;font-size: 8px&quot;&gt;发送查询语句&lt;br&gt;&lt;/div&gt;" style="edgeStyle=orthogonalEdgeStyle;rounded=0;orthogonalLoop=1;jettySize=auto;html=1;exitX=1;exitY=0.5;exitDx=0;exitDy=0;exitPerimeter=0;entryX=0;entryY=0.5;entryDx=0;entryDy=0;startArrow=classic;startFill=1;fontSize=8;verticalAlign=middle;" edge="1" parent="1" source="fBMCkiBvSeu0z5cr5rmm-1" target="fBMCkiBvSeu0z5cr5rmm-10">
          <mxGeometry relative="1" as="geometry" />
        </mxCell>
        <mxCell id="fBMCkiBvSeu0z5cr5rmm-1" value="" style="outlineConnect=0;dashed=0;verticalLabelPosition=bottom;verticalAlign=top;align=center;html=1;shape=mxgraph.aws3.management_console;fillColor=#e1d5e7;strokeColor=#9673a6;" vertex="1" parent="1">
          <mxGeometry x="80" y="198.5" width="63" height="63" as="geometry" />
        </mxCell>
        <mxCell id="fBMCkiBvSeu0z5cr5rmm-15" value="返回结果" style="edgeStyle=orthogonalEdgeStyle;rounded=0;orthogonalLoop=1;jettySize=auto;html=1;exitX=0;exitY=0.75;exitDx=0;exitDy=0;entryX=1;entryY=0.75;entryDx=0;entryDy=0;fontSize=8;startArrow=none;startFill=0;verticalAlign=top;" edge="1" parent="1" source="fBMCkiBvSeu0z5cr5rmm-3" target="fBMCkiBvSeu0z5cr5rmm-10">
          <mxGeometry relative="1" as="geometry" />
        </mxCell>
        <mxCell id="fBMCkiBvSeu0z5cr5rmm-16" style="edgeStyle=orthogonalEdgeStyle;rounded=0;orthogonalLoop=1;jettySize=auto;html=1;exitX=1;exitY=0.5;exitDx=0;exitDy=0;entryX=0;entryY=0.5;entryDx=0;entryDy=0;fontSize=8;startArrow=none;startFill=0;" edge="1" parent="1" source="fBMCkiBvSeu0z5cr5rmm-3" target="fBMCkiBvSeu0z5cr5rmm-4">
          <mxGeometry relative="1" as="geometry" />
        </mxCell>
        <mxCell id="fBMCkiBvSeu0z5cr5rmm-3" value="&lt;div&gt;查询缓存&lt;/div&gt;&lt;div&gt;Caches&lt;/div&gt;&lt;div&gt;Buffers&lt;br&gt;&lt;/div&gt;" style="rounded=0;whiteSpace=wrap;html=1;fillColor=#d5e8d4;strokeColor=#82b366;" vertex="1" parent="1">
          <mxGeometry x="320" y="200" width="80" height="60" as="geometry" />
        </mxCell>
        <mxCell id="fBMCkiBvSeu0z5cr5rmm-27" style="edgeStyle=orthogonalEdgeStyle;rounded=0;orthogonalLoop=1;jettySize=auto;html=1;exitX=1;exitY=0.5;exitDx=0;exitDy=0;entryX=0;entryY=0.5;entryDx=0;entryDy=0;fontSize=10;startArrow=none;startFill=0;" edge="1" parent="1" source="fBMCkiBvSeu0z5cr5rmm-4" target="fBMCkiBvSeu0z5cr5rmm-5">
          <mxGeometry relative="1" as="geometry" />
        </mxCell>
        <mxCell id="fBMCkiBvSeu0z5cr5rmm-4" value="&lt;div&gt;解析器&lt;/div&gt;&lt;div&gt;Parser&lt;br&gt;&lt;/div&gt;" style="rounded=0;whiteSpace=wrap;html=1;fillColor=#d5e8d4;strokeColor=#82b366;" vertex="1" parent="1">
          <mxGeometry x="440" y="200" width="80" height="60" as="geometry" />
        </mxCell>
        <mxCell id="fBMCkiBvSeu0z5cr5rmm-19" style="edgeStyle=orthogonalEdgeStyle;rounded=0;orthogonalLoop=1;jettySize=auto;html=1;exitX=0.5;exitY=1;exitDx=0;exitDy=0;entryX=0.5;entryY=0;entryDx=0;entryDy=0;fontSize=10;startArrow=none;startFill=0;" edge="1" parent="1" source="fBMCkiBvSeu0z5cr5rmm-5" target="fBMCkiBvSeu0z5cr5rmm-6">
          <mxGeometry relative="1" as="geometry" />
        </mxCell>
        <mxCell id="fBMCkiBvSeu0z5cr5rmm-5" value="&lt;div&gt;预处理器&lt;br&gt;&lt;/div&gt;" style="rounded=0;whiteSpace=wrap;html=1;fillColor=#d5e8d4;strokeColor=#82b366;" vertex="1" parent="1">
          <mxGeometry x="600" y="200" width="80" height="60" as="geometry" />
        </mxCell>
        <mxCell id="fBMCkiBvSeu0z5cr5rmm-33" style="edgeStyle=orthogonalEdgeStyle;rounded=0;orthogonalLoop=1;jettySize=auto;html=1;entryX=1;entryY=0.5;entryDx=0;entryDy=0;fontSize=8;startArrow=none;startFill=0;" edge="1" parent="1" source="fBMCkiBvSeu0z5cr5rmm-6" target="fBMCkiBvSeu0z5cr5rmm-7">
          <mxGeometry relative="1" as="geometry" />
        </mxCell>
        <mxCell id="fBMCkiBvSeu0z5cr5rmm-6" value="&lt;div&gt;查询优化器&lt;/div&gt;&lt;div&gt;Optimizer&lt;br&gt;&lt;/div&gt;" style="rounded=0;whiteSpace=wrap;html=1;fillColor=#d5e8d4;strokeColor=#82b366;" vertex="1" parent="1">
          <mxGeometry x="600" y="340" width="80" height="60" as="geometry" />
        </mxCell>
        <mxCell id="fBMCkiBvSeu0z5cr5rmm-23" style="rounded=0;orthogonalLoop=1;jettySize=auto;html=1;exitX=0.5;exitY=1;exitDx=0;exitDy=0;entryX=0.5;entryY=0;entryDx=0;entryDy=0;fontSize=10;startArrow=classic;startFill=1;edgeStyle=orthogonalEdgeStyle;" edge="1" parent="1" source="fBMCkiBvSeu0z5cr5rmm-7" target="fBMCkiBvSeu0z5cr5rmm-8">
          <mxGeometry relative="1" as="geometry" />
        </mxCell>
        <mxCell id="fBMCkiBvSeu0z5cr5rmm-35" value="API 接口调用" style="edgeLabel;html=1;align=center;verticalAlign=middle;resizable=0;points=[];fontSize=8;" vertex="1" connectable="0" parent="fBMCkiBvSeu0z5cr5rmm-23">
          <mxGeometry x="0.0315" y="1" relative="1" as="geometry">
            <mxPoint as="offset" />
          </mxGeometry>
        </mxCell>
        <mxCell id="fBMCkiBvSeu0z5cr5rmm-24" value="返回结果" style="edgeStyle=orthogonalEdgeStyle;rounded=0;orthogonalLoop=1;jettySize=auto;html=1;entryX=0.5;entryY=1;entryDx=0;entryDy=0;fontSize=8;startArrow=none;startFill=0;verticalAlign=middle;exitX=0.5;exitY=0;exitDx=0;exitDy=0;" edge="1" parent="1" source="fBMCkiBvSeu0z5cr5rmm-7" target="fBMCkiBvSeu0z5cr5rmm-3">
          <mxGeometry relative="1" as="geometry" />
        </mxCell>
        <mxCell id="fBMCkiBvSeu0z5cr5rmm-7" value="&lt;div&gt;查询执行引擎&lt;/div&gt;" style="rounded=0;whiteSpace=wrap;html=1;fillColor=#d5e8d4;strokeColor=#82b366;" vertex="1" parent="1">
          <mxGeometry x="320" y="340" width="80" height="60" as="geometry" />
        </mxCell>
        <mxCell id="fBMCkiBvSeu0z5cr5rmm-17" style="edgeStyle=orthogonalEdgeStyle;rounded=0;orthogonalLoop=1;jettySize=auto;html=1;exitX=1;exitY=0.5;exitDx=0;exitDy=0;entryX=0;entryY=0.5;entryDx=0;entryDy=0;entryPerimeter=0;fontSize=8;startArrow=classic;startFill=1;" edge="1" parent="1" source="fBMCkiBvSeu0z5cr5rmm-8" target="fBMCkiBvSeu0z5cr5rmm-9">
          <mxGeometry relative="1" as="geometry" />
        </mxCell>
        <mxCell id="fBMCkiBvSeu0z5cr5rmm-8" value="&lt;div&gt;存储引擎&lt;/div&gt;&lt;div&gt;Storage Engine&lt;br&gt;&lt;/div&gt;&lt;div&gt;InnoDB&lt;/div&gt;&lt;div&gt;MyISAM&lt;/div&gt;&lt;div&gt;......&lt;br&gt;&lt;/div&gt;" style="rounded=0;whiteSpace=wrap;html=1;fillColor=#d5e8d4;strokeColor=#82b366;" vertex="1" parent="1">
          <mxGeometry x="300" y="470" width="120" height="80" as="geometry" />
        </mxCell>
        <mxCell id="fBMCkiBvSeu0z5cr5rmm-9" value="数据" style="shape=cylinder3;whiteSpace=wrap;html=1;boundedLbl=1;backgroundOutline=1;size=15;fillColor=#dae8fc;strokeColor=#6c8ebf;" vertex="1" parent="1">
          <mxGeometry x="600" y="480" width="80" height="60" as="geometry" />
        </mxCell>
        <mxCell id="fBMCkiBvSeu0z5cr5rmm-13" value="查询 SQL" style="edgeStyle=orthogonalEdgeStyle;rounded=0;orthogonalLoop=1;jettySize=auto;html=1;exitX=1;exitY=0.25;exitDx=0;exitDy=0;entryX=0;entryY=0.25;entryDx=0;entryDy=0;fontSize=8;startArrow=none;startFill=0;verticalAlign=bottom;" edge="1" parent="1" source="fBMCkiBvSeu0z5cr5rmm-10" target="fBMCkiBvSeu0z5cr5rmm-3">
          <mxGeometry relative="1" as="geometry" />
        </mxCell>
        <mxCell id="fBMCkiBvSeu0z5cr5rmm-10" value="" style="rounded=0;whiteSpace=wrap;html=1;fillColor=default;" vertex="1" parent="1">
          <mxGeometry x="230" y="200" width="20" height="60" as="geometry" />
        </mxCell>
        <mxCell id="fBMCkiBvSeu0z5cr5rmm-34" style="edgeStyle=orthogonalEdgeStyle;rounded=0;orthogonalLoop=1;jettySize=auto;html=1;exitX=0.5;exitY=0;exitDx=0;exitDy=0;fontSize=8;startArrow=none;startFill=0;" edge="1" parent="1" source="fBMCkiBvSeu0z5cr5rmm-25">
          <mxGeometry relative="1" as="geometry">
            <mxPoint x="500.0689655172414" y="370" as="targetPoint" />
          </mxGeometry>
        </mxCell>
        <mxCell id="fBMCkiBvSeu0z5cr5rmm-25" value="查询优化器选择一条执行效率最高的查询语句（执行计划）发送给查询执行引擎" style="text;html=1;strokeColor=none;fillColor=none;align=center;verticalAlign=middle;whiteSpace=wrap;rounded=0;fontSize=8;" vertex="1" parent="1">
          <mxGeometry x="440" y="400" width="120" height="40" as="geometry" />
        </mxCell>
        <mxCell id="fBMCkiBvSeu0z5cr5rmm-30" style="edgeStyle=orthogonalEdgeStyle;rounded=0;orthogonalLoop=1;jettySize=auto;html=1;exitX=0.5;exitY=0;exitDx=0;exitDy=0;fontSize=10;startArrow=none;startFill=0;" edge="1" parent="1" source="fBMCkiBvSeu0z5cr5rmm-29">
          <mxGeometry relative="1" as="geometry">
            <mxPoint x="559.9268292682927" y="230" as="targetPoint" />
          </mxGeometry>
        </mxCell>
        <mxCell id="fBMCkiBvSeu0z5cr5rmm-31" style="edgeStyle=orthogonalEdgeStyle;rounded=0;orthogonalLoop=1;jettySize=auto;html=1;exitX=1;exitY=0.5;exitDx=0;exitDy=0;fontSize=8;startArrow=none;startFill=0;" edge="1" parent="1" source="fBMCkiBvSeu0z5cr5rmm-29">
          <mxGeometry relative="1" as="geometry">
            <mxPoint x="640" y="300" as="targetPoint" />
          </mxGeometry>
        </mxCell>
        <mxCell id="fBMCkiBvSeu0z5cr5rmm-29" value="解析器将查询语句解析成抽象语法树 AST，并向下传递" style="text;html=1;strokeColor=none;fillColor=none;align=center;verticalAlign=middle;whiteSpace=wrap;rounded=0;fontSize=8;" vertex="1" parent="1">
          <mxGeometry x="520" y="280" width="80" height="40" as="geometry" />
        </mxCell>
      </root>
    </mxGraphModel>
  </diagram>
</mxfile>
